<svg xmlns="http://www.w3.org/2000/svg" viewBox="0 0 64 32" width="64" height="32" shape-rendering="crispEdges">
  <rect width="64" height="32" fill="none"/>

  <!-- Wings -->
  <rect x="20" y="7" width="15" height="3" fill="#0f172a"/>
  <rect x="20" y="22" width="15" height="3" fill="#0f172a"/>
  <rect x="22" y="8" width="11" height="2" fill="#334155"/>
  <rect x="22" y="22" width="11" height="2" fill="#334155"/>

  <!-- Main hull (chubby) -->
  <rect x="16" y="9" width="34" height="14" fill="#0f172a"/>
  <rect x="18" y="11" width="28" height="10" fill="#64748b"/>
  <rect x="21" y="11" width="20" height="2" fill="#94a3b8"/>
  <rect x="23" y="19" width="14" height="2" fill="#475569"/>

  <!-- Belly -->
  <rect x="24" y="21" width="12" height="2" fill="#334155"/>

  <!-- Nose -->
  <rect x="50" y="11" width="8" height="10" fill="#94a3b8"/>
  <rect x="58" y="13" width="3" height="6" fill="#e2e8f0"/>

  <!-- Cockpit -->
  <rect x="29" y="13" width="10" height="5" fill="#22d3ee"/>
  <rect x="31" y="13" width="6" height="2" fill="#67e8f9"/>

  <!-- Rear body -->
  <rect x="12" y="12" width="4" height="2" fill="#0f172a"/>
  <rect x="12" y="18" width="4" height="2" fill="#0f172a"/>
  <rect x="12" y="14" width="4" height="4" fill="#334155"/>

  <!-- Engine flame (smaller) -->
  <rect x="9" y="14" width="3" height="4" fill="#f97316"/>
  <rect x="6" y="15" width="3" height="2" fill="#facc15"/>
  <rect x="4" y="15" width="2" height="2" fill="#fef3c7"/>
</svg>
