<svg xmlns="http://www.w3.org/2000/svg" viewBox="0 0 64 32" width="64" height="32" shape-rendering="crispEdges">
  <rect width="64" height="32" fill="none"/>

  <!-- Wings -->
  <rect x="20" y="6" width="14" height="4" fill="#0f172a"/>
  <rect x="20" y="22" width="14" height="4" fill="#0f172a"/>
  <rect x="22" y="8" width="10" height="2" fill="#334155"/>
  <rect x="22" y="22" width="10" height="2" fill="#334155"/>

  <!-- Main hull -->
  <rect x="18" y="10" width="30" height="12" fill="#0f172a"/>
  <rect x="20" y="12" width="24" height="8" fill="#64748b"/>
  <rect x="22" y="12" width="16" height="2" fill="#94a3b8"/>
  <rect x="24" y="18" width="10" height="2" fill="#475569"/>

  <!-- Nose -->
  <rect x="48" y="12" width="8" height="8" fill="#94a3b8"/>
  <rect x="56" y="14" width="4" height="4" fill="#e2e8f0"/>

  <!-- Cockpit -->
  <rect x="30" y="14" width="8" height="4" fill="#22d3ee"/>
  <rect x="32" y="14" width="4" height="2" fill="#67e8f9"/>

  <!-- Rear body -->
  <rect x="14" y="12" width="4" height="2" fill="#0f172a"/>
  <rect x="14" y="18" width="4" height="2" fill="#0f172a"/>
  <rect x="14" y="14" width="4" height="4" fill="#334155"/>

  <!-- Engine flame -->
  <rect x="10" y="14" width="4" height="4" fill="#f97316"/>
  <rect x="6" y="14" width="4" height="4" fill="#facc15"/>
  <rect x="4" y="14" width="2" height="2" fill="#fef3c7"/>
  <rect x="4" y="16" width="2" height="2" fill="#fef3c7"/>
</svg>
