<svg xmlns="http://www.w3.org/2000/svg" viewBox="0 0 64 32" width="64" height="32" shape-rendering="crispEdges">
  <rect width="64" height="32" fill="none"/>

  <!-- Tail -->
  <rect x="6" y="12" width="6" height="8" fill="#0f172a"/>
  <rect x="12" y="10" width="4" height="12" fill="#0f172a"/>
  <rect x="12" y="12" width="3" height="8" fill="#0f766e"/>

  <!-- Body outline -->
  <rect x="16" y="8" width="36" height="16" fill="#0f172a"/>
  <rect x="52" y="12" width="6" height="8" fill="#0f172a"/>

  <!-- Body -->
  <rect x="18" y="10" width="32" height="12" fill="#14b8a6"/>
  <rect x="22" y="12" width="22" height="8" fill="#2dd4bf"/>
  <rect x="24" y="16" width="18" height="4" fill="#99f6e4"/>

  <!-- Fins -->
  <rect x="28" y="6" width="8" height="4" fill="#0f172a"/>
  <rect x="30" y="7" width="4" height="3" fill="#0d9488"/>
  <rect x="30" y="22" width="8" height="4" fill="#0f172a"/>
  <rect x="32" y="22" width="4" height="3" fill="#0d9488"/>

  <!-- Face -->
  <rect x="50" y="13" width="4" height="6" fill="#5eead4"/>
  <rect x="54" y="14" width="2" height="4" fill="#ccfbf1"/>
  <rect x="46" y="12" width="2" height="2" fill="#ecfeff"/>
  <rect x="47" y="13" width="1" height="1" fill="#0f172a"/>

  <!-- Scale highlights -->
  <rect x="22" y="11" width="8" height="1" fill="#a7f3d0"/>
  <rect x="32" y="11" width="6" height="1" fill="#a7f3d0"/>
  <rect x="24" y="14" width="4" height="1" fill="#67e8f9"/>
</svg>
