<svg xmlns="http://www.w3.org/2000/svg" viewBox="0 0 48 48" width="48" height="48" shape-rendering="crispEdges">
  <rect width="48" height="48" fill="none"/>

  <!-- Outline -->
  <rect x="22" y="6" width="4" height="4" fill="#713f12"/>
  <rect x="18" y="10" width="4" height="4" fill="#713f12"/>
  <rect x="26" y="10" width="4" height="4" fill="#713f12"/>
  <rect x="14" y="14" width="4" height="4" fill="#713f12"/>
  <rect x="30" y="14" width="4" height="4" fill="#713f12"/>
  <rect x="10" y="18" width="4" height="4" fill="#713f12"/>
  <rect x="34" y="18" width="4" height="4" fill="#713f12"/>
  <rect x="6" y="22" width="4" height="4" fill="#713f12"/>
  <rect x="38" y="22" width="4" height="4" fill="#713f12"/>
  <rect x="10" y="26" width="4" height="4" fill="#713f12"/>
  <rect x="34" y="26" width="4" height="4" fill="#713f12"/>
  <rect x="14" y="30" width="4" height="4" fill="#713f12"/>
  <rect x="30" y="30" width="4" height="4" fill="#713f12"/>
  <rect x="18" y="34" width="4" height="4" fill="#713f12"/>
  <rect x="26" y="34" width="4" height="4" fill="#713f12"/>
  <rect x="22" y="38" width="4" height="4" fill="#713f12"/>

  <!-- Body -->
  <rect x="22" y="10" width="4" height="4" fill="#facc15"/>
  <rect x="18" y="14" width="12" height="4" fill="#facc15"/>
  <rect x="14" y="18" width="20" height="4" fill="#facc15"/>
  <rect x="10" y="22" width="28" height="4" fill="#facc15"/>
  <rect x="14" y="26" width="20" height="4" fill="#facc15"/>
  <rect x="18" y="30" width="12" height="4" fill="#facc15"/>
  <rect x="22" y="34" width="4" height="4" fill="#facc15"/>

  <!-- Inner shade -->
  <rect x="14" y="22" width="20" height="4" fill="#eab308"/>
  <rect x="18" y="26" width="12" height="4" fill="#eab308"/>
  <rect x="22" y="30" width="4" height="4" fill="#eab308"/>

  <!-- Highlight -->
  <rect x="18" y="18" width="8" height="4" fill="#fef08a"/>
  <rect x="22" y="14" width="4" height="4" fill="#fef08a"/>
  <rect x="26" y="22" width="4" height="4" fill="#fde047"/>
</svg>
